<?xml version="1.0" encoding="utf-8"?>
<!-- Generator: Adobe Illustrator 27.8.1, SVG Export Plug-In . SVG Version: 6.00 Build 0)  -->
<svg version="1.1" id="Calque_1" xmlns="http://www.w3.org/2000/svg" xmlns:xlink="http://www.w3.org/1999/xlink" x="0px" y="0px"
	 viewBox="0 0 212 28" style="enable-background:new 0 0 212 28;" xml:space="preserve">
<style type="text/css">
	.st0{fill-rule:evenodd;clip-rule:evenodd;fill:#7047EB;}
	.st1{fill-rule:evenodd;clip-rule:evenodd;fill:#FFC233;}
</style>
<path class="st0" d="M42.6,13.9h6.3c-0.4-1.6-1.6-2.3-3-2.3C44.4,11.6,43.1,12.4,42.6,13.9z M52.6,16.6H42.4
	c0.4,2.1,2.2,2.8,3.7,2.8c1.9,0,2.7-1.1,2.7-1.1h3.5c-1.1,2.7-3.6,4.2-6.4,4.2c-3.8,0-7.1-2.8-7.1-7c0-4.2,3.3-6.8,7-6.8
	C49.4,8.6,53,11.1,52.6,16.6z"/>
<path class="st0" d="M87.3,15.6c0-2.1-1.3-3.8-3.4-3.8c-2.1,0-3.6,1.7-3.6,3.8s1.4,3.8,3.6,3.8C86,19.3,87.3,17.7,87.3,15.6z
	 M76.7,15.6c0-4.3,3.5-6.9,7.2-6.9c3.8,0,7.1,2.6,7.1,6.9c0,4.3-3.4,6.9-7.2,6.9C80,22.5,76.7,19.8,76.7,15.6z"/>
<path class="st0" d="M106,15v7.4h-3.7v-6.5c0-0.5,0.3-3.9-2.4-4c-1.3-0.1-3.7,0.6-3.7,4.2v6.4h-3.7V8.8h3.4l0,1.9c0,0,1.5-2,4.4-2
	C103.9,8.6,106,11.2,106,15z"/>
<path class="st0" d="M119.6,11.5c-1.2,0-1.7,0.6-1.7,1.1c0,0.9,1.3,1.2,2.1,1.4c2.5,0.5,5,1.2,5,4.1c0,2.8-2.4,4.3-5.3,4.3
	c-3.2,0-5.7-1.9-5.9-4.8h3.4c0.1,0.8,0.6,1.9,2.4,1.9c1.4,0,1.8-0.7,1.8-1.3c0-1-1-1.3-1.9-1.5c-1.7-0.4-5.2-1-5.2-4.1
	c0-2.7,2.6-4,5.4-4c3.1,0,5.2,1.8,5.4,4.1h-3.4C121.5,12.3,121,11.5,119.6,11.5z"/>
<path class="st0" d="M136.4,15.6c0-2.3-1.3-3.6-3.1-3.6c-1.7,0-3.4,1.2-3.4,3.6c0,2.4,1.7,3.6,3.4,3.6
	C135.1,19.1,136.4,17.8,136.4,15.6z M139.9,8.8v19h-3.5V21c-0.9,1-2.2,1.5-3.6,1.5c-3.6,0-6.5-2.8-6.5-6.9c0-4.1,3-6.9,6.5-6.9
	c2.8,0,3.8,1.8,3.8,1.8l0-1.7H139.9z"/>
<path class="st0" d="M159.9,13.9h6.3c-0.4-1.6-1.6-2.3-3-2.3C161.7,11.6,160.5,12.4,159.9,13.9z M169.9,16.6h-10.2
	c0.4,2.1,2.2,2.8,3.7,2.8c1.9,0,2.7-1.1,2.7-1.1h3.5c-1.1,2.7-3.6,4.2-6.4,4.2c-3.8,0-7.1-2.8-7.1-7c0-4.2,3.3-6.8,7-6.8
	C166.7,8.6,170.4,11.1,169.9,16.6z"/>
<path class="st0" d="M174.8,13.9h6.3c-0.4-1.6-1.6-2.3-3-2.3C176.6,11.6,175.3,12.4,174.8,13.9z M184.8,16.6h-10.2
	c0.4,2.1,2.2,2.8,3.7,2.8c1.9,0,2.7-1.1,2.7-1.1h3.5c-1.1,2.7-3.6,4.2-6.4,4.2c-3.8,0-7.1-2.8-7.1-7c0-4.2,3.3-6.8,7-6.8
	C181.6,8.6,185.2,11.1,184.8,16.6z"/>
<path class="st0" d="M197.3,19.3v3h-11.9v-1.8l6.8-8.7h-6.5v-3H197v1.8l-6.8,8.7H197.3z"/>
<path class="st0" d="M211.8,8.8v11.9V21c0,3.7-1.9,6.9-6.7,6.9c-4.5,0-6.9-2.8-6.9-5h3.5c0,0,0.5,1.8,3.3,1.8c2.4,0,3.3-1.3,3.3-3.2
	V21c-0.6,0.7-1.8,1.5-3.9,1.5c-3.7,0-6-2.6-6-6.3l0-7.4h3.6v6.5c0,1.8,0.7,4,3,4c1.2,0,3.2-0.6,3.2-4.2V8.8H211.8z"/>
<path class="st0" d="M36.2,18.3c0,0.8,0.3,1.2,1,1.2c0.4,0,0.7-0.1,1.1-0.2l0.2,2.8c-0.8,0.2-1.5,0.4-2.5,0.4
	c-2.2,0-3.5-0.7-3.5-3.7V3.4h3.7V18.3z"/>
<path class="st0" d="M75.1,15v7.4h-3.7v-6.5c0-1.9,0.2-4.2-2.4-4c-0.7,0.1-2.5,0.4-2.5,4.2v6.4h-3.7v-6.5c0-1.9,0.2-4.2-2.4-4
	c-0.7,0.1-2.5,0.4-2.5,4.2v6.4h-3.7V8.8h3.4l0,1.9c0,0,1.3-2,3.7-2c2.9,0,4.1,2.2,4.1,2.2s1.3-2.2,4.5-2.2
	C73.4,8.6,75.1,11.2,75.1,15z"/>
<path class="st0" d="M141.5,16.1V8.8h3.7v6.5c0,0.5-0.3,3.9,2.4,4c1.3,0.1,3.7-0.6,3.7-4.2V8.8h3.7v13.6h-3.4l0-1.9c0,0-1.5,2-4.4,2
	C143.5,22.5,141.5,19.9,141.5,16.1z"/>
<path class="st1" d="M6.9,17.2l7.5,3.5c0.9,0.4,1.6,1.2,1.9,2c0.9,2.1-0.3,4.2-2.3,5c-1.9,0.8-4,0.3-4.9-1.9l-3.3-7.7
	C5.7,17.5,6.3,16.9,6.9,17.2z"/>
<path class="st1" d="M7.4,14.9l7.8-2.9c2.6-1,5.4,0.9,5.4,3.5c0,0,0,0.1,0,0.1c-0.1,2.6-2.8,4.4-5.3,3.4l-7.8-2.8
	C6.8,16,6.8,15.2,7.4,14.9z"/>
<path class="st1" d="M6.9,13.9l7.6-3.2c2.5-1.1,3.2-4.3,1.2-6.2c0,0-0.1,0-0.1-0.1c-1.9-1.8-5.2-1.2-6.3,1.2L6,13
	C5.7,13.6,6.3,14.2,6.9,13.9z"/>
<path class="st1" d="M5,12.6L7.8,5C8.1,4.1,8,3.1,7.7,2.3c-0.9-2.1-3.3-2.8-5.3-2C0.5,1.1-0.6,2.8,0.3,5l3.3,7.7
	C3.9,13.3,4.8,13.2,5,12.6z"/>
</svg>
