<?xml version="1.0" encoding="utf-8"?>
<!-- Generator: Adobe Illustrator 25.0.1, SVG Export Plug-In . SVG Version: 6.00 Build 0)  -->
<svg version="1.0" id="katman_1" xmlns="http://www.w3.org/2000/svg" xmlns:xlink="http://www.w3.org/1999/xlink" x="0px" y="0px"
	 viewBox="0 0 394.6 260.8" style="enable-background:new 0 0 394.6 260.8;" xml:space="preserve">
<style type="text/css">
	.st0{fill:#1A1F71;}
</style>
<g>
	<path class="st0" d="M166.5,74.9l-33.5,80h-21.9L94.6,91c-1-3.9-1.9-5.4-4.9-7c-5-2.7-13.2-5.2-20.4-6.8l0.5-2.3H105
		c4.5,0,8.5,3,9.5,8.1l8.7,46.3l21.5-54.4H166.5z M196.1,74.9l-17.1,80h-20.7l17.1-80H196.1z M252.2,128.7
		c0.1-21.1-29.2-22.3-29-31.7c0.1-2.9,2.8-5.9,8.8-6.7c3-0.4,11.1-0.7,20.4,3.6l3.6-17c-5-1.8-11.4-3.5-19.3-3.5
		c-20.5,0-34.8,10.9-35,26.4c-0.1,11.5,10.3,17.9,18.1,21.8c8.1,3.9,10.8,6.4,10.7,9.9c-0.1,5.4-6.4,7.7-12.4,7.8
		c-10.4,0.2-16.4-2.8-21.2-5.1l-3.8,17.5c4.8,2.2,13.8,4.1,23,4.2C237.9,156.1,252.1,145.3,252.2,128.7L252.2,128.7z M306.2,154.8
		h19.1l-16.7-80H291c-4,0-7.3,2.3-8.8,5.9l-31,74.1h21.7l4.3-11.9h26.5L306.2,154.8z M283.1,126.5l10.9-30l6.3,30H283.1z
		 M222.5,176.8h-8.4v7.8h9.4v2.4h-12.2v-21.7h11.8v2.4h-8.9v6.9h8.4V176.8z M227.9,164.1h2.8V187h-2.8V164.1z M237.9,179.7
		c0.1,3.8,2.5,5.4,5.3,5.4c2,0,3.3-0.4,4.3-0.8l0.5,2c-1,0.4-2.7,1-5.2,1c-4.8,0-7.7-3.2-7.7-7.9c0-4.7,2.8-8.4,7.3-8.4
		c5.1,0,6.4,4.4,6.4,7.3c0,0.6,0,1-0.1,1.3H237.9L237.9,179.7z M246.2,177.7c0-1.8-0.7-4.6-3.9-4.6c-2.9,0-4.1,2.6-4.3,4.6H246.2z
		 M264.3,186.5c-0.7,0.4-2.4,0.9-4.5,0.9c-4.7,0-7.8-3.2-7.8-8c0-4.8,3.3-8.3,8.4-8.3c1.7,0,3.2,0.4,3.9,0.8l-0.6,2.2
		c-0.7-0.4-1.7-0.7-3.3-0.7c-3.6,0-5.5,2.7-5.5,5.9c0,3.6,2.3,5.8,5.4,5.8c1.6,0,2.7-0.4,3.5-0.7L264.3,186.5z M272.3,167.7v3.7h4.1
		v2.2h-4.1v8.4c0,1.9,0.5,3,2.1,3c0.8,0,1.2-0.1,1.6-0.2l0.1,2.2c-0.5,0.2-1.4,0.4-2.5,0.4c-1.3,0-2.4-0.5-3.1-1.2
		c-0.8-0.9-1.1-2.3-1.1-4.1v-8.5h-2.4v-2.2h2.4v-2.9L272.3,167.7z M280.3,176.3c0-1.8,0-3.4-0.1-4.9h2.5l0.1,3.1h0.1
		c0.7-2.1,2.4-3.4,4.3-3.4c0.3,0,0.5,0,0.8,0.1v2.7c-0.3-0.1-0.6-0.1-1-0.1c-2,0-3.4,1.5-3.8,3.6c-0.1,0.4-0.1,0.9-0.1,1.3v8.3h-2.8
		V176.3z M305.4,179.1c0,5.8-4,8.3-7.8,8.3c-4.2,0-7.5-3.1-7.5-8c0-5.2,3.4-8.2,7.7-8.2C302.4,171.1,305.4,174.3,305.4,179.1z
		 M293.1,179.2c0,3.4,1.9,6,4.7,6c2.7,0,4.7-2.5,4.7-6.1c0-2.6-1.3-6-4.7-6C294.5,173.2,293.1,176.3,293.1,179.2z M309.7,175.6
		c0-1.6,0-2.9-0.1-4.2h2.5l0.2,2.6h0.1c0.8-1.4,2.6-2.9,5.2-2.9c2.2,0,5.5,1.3,5.5,6.6v9.3h-2.8v-9c0-2.5-0.9-4.6-3.6-4.6
		c-1.8,0-3.3,1.3-3.8,2.9c-0.1,0.4-0.2,0.8-0.2,1.3v9.4h-2.8V175.6z"/>
</g>
</svg>
